<svg id="Capa_1" enable-background="new 0 0 511.985 511.985" height="512" viewBox="0 0 511.985 511.985" width="512" xmlns="http://www.w3.org/2000/svg"><g><g><path d="m393.857 336.336v-18.283h-81.025l-25.128 28.283z" fill="#e9a52d"/><path d="m305.704 336.336c2.6-4.996 5.141-10.666 7.128-18.283h-53.786v33.283h134.811v-15z" fill="#c27e4e"/><path d="m431.926 449.966-70.848-345.085h-18.678l62.749 355.865c.567 3.213 2.043 6.064 4.121 8.333 17.534 0 24.229-10.191 22.656-19.113z" fill="#ffc250"/><path d="m437.926 454.966-61.729-350.085h-15.118l60.848 345.085c1.573 8.921-4.24 17.192-12.656 19.113 3.066 3.348 7.454 5.418 12.268 5.418 10.345.001 18.184-9.341 16.387-19.531z" fill="#e9a52d"/><path d="m382.395 77.936c-3.502 0-48.684 0-91.002 0l-20.433 10-21.95-10c-17.693 0-30.447 0-32.242 0-12.135 0-21.973 9.838-21.973 21.973 0 1.657.141 3.324.365 4.973l191.479 10c3.013 0 5.726-1.799 6.906-4.571 2.011-4.728 5.978-24.149-1.188-29.984-2.99-1.526-6.374-2.391-9.962-2.391z" fill="#da8bc1"/><path d="m392.358 80.326c-.098 7.523-2.801 15.255-4.812 19.984-1.179 2.773-3.893 4.571-6.906 4.571h-102.585l1.44-8.166c2.751.485 5.454-1.075 6.41-3.7l5.488-15.079c-15.187 0-29.993 0-42.383 0l-4.751 26.946h-49.099c.472 3.469 1.352 6.845 2.33 9.803 2.02 6.109 7.777 10.197 14.212 10.197h175.758c6.435 0 12.192-4.087 14.212-10.197 1.443-4.365 2.695-9.633 2.695-14.776 0-8.548-4.883-15.949-12.009-19.583z" fill="#ca59a6"/><path d="m283.043 444.03c6.15-34.88-17.533-60.227-14.617-84.179 2.916-23.953 15.895-28.07 21.12-57.7 1.991-11.291-.716-30.489-9.485-41.193-13.061-12.905-33.725-23.307-62.705-28.417-60.346-10.641-94.735 12.554-100.274 43.966-5.225 29.631 5.565 37.939.111 61.444s-36.376 39.223-42.527 74.104c-1.581 8.969-.966 18.14 1.906 27.063 18.263 28.41 53.627 45.243 93.382 52.253 70.267 12.388 107.994-18.449 113.089-47.341z" fill="#f1f6f7"/><path d="m296.545 308.15c2.879-16.327-2.348-33.226-16.485-47.193 3.539 12.171 3.476 24.902 1.485 36.193-5.225 29.631-18.204 33.747-21.12 57.7s20.768 49.299 14.617 84.179c-5.094 28.893-34.822 54.729-105.089 42.339-39.755-7.01-72.875-23.077-93.382-42.253 8.864 27.54 39.277 52.713 93.382 62.253 71.636 12.632 113.627-14.687 120.09-51.338 6.15-34.88-17.533-60.227-14.617-84.179 2.915-23.954 15.894-28.07 21.119-57.701z" fill="#d2e4e7"/><path d="m33.875 234.415h360.431v33.283h-360.431z" fill="#d2e4e7" transform="matrix(.174 -.985 .985 .174 -70.329 418.299)"/><path d="m220.446 310.845-32.777-5.78c-15.782 3.759-28.617 16.54-31.614 33.534-2.996 16.993 4.694 33.394 18.238 42.324l32.777 5.78c15.781-3.759 28.617-16.54 31.614-33.534 2.996-16.993-4.694-33.394-18.238-42.324z" fill="#607882"/><path d="m204.654 304.57c-5.824-1.027-11.577-.792-16.985.496l-13.376 75.857c4.642 3.061 9.968 5.249 15.792 6.275s11.577.792 16.986-.496l13.376-75.857c-4.643-3.06-9.969-5.248-15.793-6.275z" fill="#738c96"/><path d="m259.055 79.491 20.884-57.377c.835-2.294-2.96-6.613-7.205-8.692-4.547-2.047-9.885-3.883-15.871-4.938-11.383-2.007-21.55-.578-28.157 1.007-3.374.81-5.745 3.825-5.745 7.294v55.482c0 2.794 2.006 5.184 4.757 5.669l4.85.855 13.692 2.414c8.181 1.443 11.839.911 12.795-1.714z" fill="#f1f6f7"/><path d="m282.977 19.06c-2.686-1.777-6.144-3.793-10.243-5.638 1.287 1.938 1.653 4.411.818 6.706l-20.884 57.377c-.956 2.625-3.658 4.186-6.409 3.7l14.236 2.51c2.751.485 5.454-1.075 6.41-3.7l18.976-52.136c1.186-3.26-.011-6.905-2.904-8.819z" fill="#d2e4e7"/></g><g><path d="m445.312 453.664-34.98-198.383c-.72-4.079-4.608-6.804-8.688-6.083-4.079.719-6.803 4.608-6.083 8.688l34.98 198.383c.47 2.668-.259 5.388-2 7.463s-4.294 3.266-7.003 3.266c-4.444 0-8.23-3.177-9.003-7.555l-57.67-327.062h18.564l17.017 96.499c.719 4.079 4.612 6.808 8.688 6.083 4.079-.719 6.803-4.609 6.083-8.688l-16.562-93.925c9.228-.481 17.229-6.513 20.138-15.312 2.04-6.168 3.074-11.932 3.074-17.13 0-16.251-13.222-29.473-29.473-29.473h-83.993c-4.143 0-7.5 3.357-7.5 7.5s3.357 7.5 7.5 7.5h83.993c7.98 0 14.473 6.492 14.473 14.473 0 3.544-.801 7.839-2.316 12.422-.999 3.021-3.849 5.051-7.091 5.051h-125.285l4.807-27.261c3.148-1.432 5.712-4.083 6.971-7.541l18.976-52.135v-.001c2.382-6.545-.009-13.798-5.812-17.638-6.205-4.106-16.264-9.472-28.952-11.709-12.684-2.237-23.972-.636-31.211 1.1-6.767 1.626-11.493 7.625-11.493 14.588v53.68c-15.646.688-28.165 13.632-28.165 29.444 0 5.194 1.034 10.957 3.074 17.13 2.91 8.799 10.912 14.83 20.139 15.312l-15.9 90.172c-10.402-.379-20.191.326-29.157 2.114-4.062.811-6.698 4.761-5.889 8.822.811 4.062 4.758 6.7 8.822 5.889 7.231-1.442 15.131-2.078 23.592-1.896l-10.624 60.251c-4.602 1.537-9.007 3.749-13.092 6.609-11.104 7.775-18.516 19.409-20.869 32.759-2.354 13.35.631 26.817 8.406 37.922 2.86 4.086 6.243 7.671 10.041 10.688l-5.515 31.275-12.915-2.277c-4.085-.722-7.969 2.005-8.688 6.083-.72 4.079 2.004 7.97 6.083 8.688l73.38 12.938c4.084.726 7.97-2.005 8.688-6.083.72-4.08-2.004-7.97-6.083-8.688l-12.916-2.277 5.515-31.275c4.602-1.537 9.007-3.749 13.091-6.609 11.104-7.775 18.517-19.409 20.87-32.759 3.343-18.959-4.353-37.355-18.454-48.574l3.65-20.702c.72-4.079-2.004-7.97-6.083-8.688-4.086-.724-7.969 2.005-8.688 6.083l-2.731 15.49c-2.827-1.049-5.787-1.857-8.859-2.399-3.051-.538-6.118-.769-9.144-.784l36.764-208.497 18.005 3.175-29.076 164.896c-.72 4.079 2.004 7.97 6.083 8.688 4.091.722 7.969-2.004 8.688-6.083l2.021-11.464c17.548 5.972 31.266 14.745 39.938 25.604 8.543 10.693 11.896 22.938 9.697 35.407-2.446 13.872-6.72 21.615-10.853 29.104-4.287 7.77-8.721 15.803-10.327 28.993-1.496 12.296 2.714 24.071 7.171 36.537 5.214 14.584 10.605 29.663 7.506 47.247-2.912 16.517-14.097 30.263-31.493 38.705-20.408 9.904-48.041 12.169-79.907 6.55-31.868-5.619-57.059-17.198-72.849-33.485-13.46-13.883-19.269-30.625-16.356-47.143 3.101-17.583 13.324-29.909 23.212-41.83 8.452-10.19 16.435-19.815 19.234-31.881 3.004-12.944 1.585-22.01.213-30.778-1.322-8.449-2.689-17.188-.244-31.058 2.019-11.445 8.442-21.209 18.578-28.237 3.404-2.359 4.25-7.032 1.89-10.437-2.358-3.403-7.032-4.253-10.437-1.89-13.498 9.358-22.074 22.484-24.803 37.958-2.88 16.329-1.245 26.771.196 35.982 1.308 8.357 2.341 14.959-.005 25.068-1.998 8.61-8.564 16.528-16.169 25.695-10.615 12.8-22.647 27.306-26.437 48.802-3.771 21.384 3.459 42.759 20.358 60.189 18.002 18.568 46.016 31.645 81.013 37.815 12.235 2.158 23.955 3.23 35.021 3.23 20.587-.001 38.907-3.713 54.04-11.057 21.842-10.6 35.946-28.214 39.716-49.596 3.791-21.496-2.555-39.243-8.153-54.901-4.01-11.215-7.473-20.9-6.404-29.675.36-2.96.884-5.554 1.544-7.921h95.149l18.199 103.213c2.038 11.56 12.037 19.949 23.774 19.949 7.154 0 13.896-3.144 18.494-8.624 4.598-5.479 6.524-12.662 5.281-19.708zm-219.593-129.533c5.887 7.679 8.666 17.703 6.857 27.96-1.658 9.404-6.88 17.6-14.702 23.077-.432.302-.868.594-1.31.876zm-57.635 42.258c-5.477-7.822-7.58-17.309-5.922-26.713s6.879-17.6 14.701-23.077c.432-.302.869-.595 1.311-.876l-9.158 51.938c-.318-.415-.629-.84-.932-1.272zm25.017 56.347-18.005-3.175 4.601-26.089c2.847 1.051 5.809 1.853 8.859 2.391 3.054.538 6.146.767 9.145.784zm10.475-112.059c3.11.549 6.058 1.486 8.798 2.754l-12.007 68.092c-3.035.251-6.125.111-9.207-.432-3.079-.543-6.03-1.469-8.798-2.742l12.009-68.104c3.037-.246 6.126-.109 9.205.432zm9.571-193.296h-1.443c-3.242 0-6.093-2.03-7.092-5.051-1.516-4.585-2.316-8.881-2.316-12.422 0-7.98 6.492-14.473 14.473-14.473h2.012zm17.313-46.577-.005-54.021c5.854-1.404 14.962-2.703 25.104-.914 10.148 1.79 18.258 6.133 23.272 9.446l-18.476 50.761zm11.697 160.104 17.373-98.526h80.104l31.417 178.172h-67.318c2.979-16.057-1.646-34.826-12.549-48.476-10.839-13.567-27.711-24.276-49.027-31.17zm48.931 112.928c.117-.211.234-.424.352-.637 2.766-5.011 5.757-10.431 8.321-17.646h73.934l3.224 18.282h-85.831z"/><path d="m201.918 463.299c.441.078.879.115 1.312.115 3.571 0 6.735-2.561 7.377-6.198.72-4.08-2.004-7.97-6.083-8.688l-48.982-8.637c-4.084-.717-7.969 2.005-8.688 6.083-.72 4.079 2.004 7.97 6.083 8.688z"/></g></g></svg>