<svg id="Capa_1" enable-background="new 0 0 512 512" height="512" viewBox="0 0 512 512" width="512" xmlns="http://www.w3.org/2000/svg"><g><g><path d="m425.107 116.893c-1.41-1.41-103.59-103.59-105-105v105z" fill="#b4d2d7"/><path d="m421.5 489v-368.5l-82-8c-8.284 0-15-6.716-15-15v-75c0-4.142-1.679-7.892-4.393-10.607-2.715-2.714-6.465-4.393-10.607-4.393h-212c-8.284 0-15 6.716-15 15v467l331.5 7c4.142 0 7.5-3.358 7.5-7.5z" fill="#f1f6f7"/><path d="m425.107 116.893c-2.714-2.714-6.464-4.393-10.607-4.393h-75c0 8.284 6.716 15 15 15h60v354.5c0 4.142-3.358 7.5-7.5 7.5h-324.5c0 8.284 6.716 15 15 15h317c8.284 0 15-6.716 15-15v-362c0-4.142-1.679-7.892-4.393-10.607z" fill="#d2e4e7"/><path d="m182.922 285.637c15.283-2.9 26.038-16.717 20.753-39.998-5.572-.96-12.084-1.374-18.507-.155-16.569 3.144-26.246 13.036-26.246 25.954 0 3.653 1.075 7.105 2.99 10.109 3.882 4.502 16.739 4.9 21.01 4.09z" fill="#acd980"/><path d="m308.922 149.084-90-24.115v15.019l97 32.115z" fill="#acd980"/><path d="m203.675 245.638c-1.866 21.396-14.47 33.098-29.753 35.998-4.272.811-8.331.714-12.01-.09 4.858 7.619 15.126 12.345 27.01 10.09 16.569-3.145 30-16.624 30-41.598 0 .001-6.447-2.883-15.247-4.4z" fill="#8cc951"/><path d="m287.922 313.771c15.283-2.9 26.038-16.717 20.753-39.998-5.572-.96-12.084-1.374-18.507-.155-16.569 3.144-26.246 13.036-26.246 25.954 0 3.653 1.075 7.105 2.99 10.109 3.882 4.503 16.739 4.901 21.01 4.09z" fill="#acd980"/><g fill="#8cc951"><path d="m308.675 273.773c-1.866 21.396-14.47 33.098-29.753 35.998-4.272.811-8.331.714-12.01-.09 4.858 7.619 15.126 12.345 27.01 10.09 16.569-3.145 30-16.624 30-41.598 0 0-6.447-2.884-15.247-4.4z"/><path d="m308.922 149.084v10.458c0 2.301-2.183 3.976-4.406 3.381l-85.594-22.935v14.981l105 28.135v-30z"/></g></g><g><path d="m293.5 384.449v32.11c0 4.142 3.357 7.5 7.5 7.5s7.5-3.358 7.5-7.5v-32.11c0-4.142-3.357-7.5-7.5-7.5s-7.5 3.358-7.5 7.5z"/><path d="m263.5 385.617v29.775c0 4.142 3.357 7.5 7.5 7.5s7.5-3.358 7.5-7.5v-29.775c0-4.142-3.357-7.5-7.5-7.5s-7.5 3.358-7.5 7.5z"/><path d="m325.864 145.859-105-28.135c-2.253-.603-4.656-.125-6.507 1.294-1.85 1.419-2.935 3.619-2.935 5.95v114.678c-7.303-1.889-17.492-3.459-27.653-1.532-19.952 3.787-32.347 16.556-32.347 33.323 0 7.921 3.677 15.509 10.089 20.818 7.628 6.316 18.129 8.775 28.81 6.749 10.471-1.987 19.358-7.291 25.704-15.337 6.899-8.749 10.397-20.063 10.397-33.629v-85.295l90 24.115v78.923c-7.304-1.89-17.493-3.458-27.653-1.532-19.952 3.787-32.347 16.555-32.347 33.323 0 7.921 3.677 15.509 10.089 20.818 5.877 4.867 13.458 7.444 21.514 7.444 2.4 0 4.844-.229 7.296-.694 10.471-1.987 19.358-7.291 25.704-15.337 6.899-8.75 10.397-20.064 10.397-33.629v-125.07c.001-3.395-2.279-6.366-5.558-7.245zm-138.34 138.409c-6.278 1.192-12.271-.108-16.446-3.565-3.002-2.486-4.655-5.776-4.655-9.265 0-9.382 7.342-16.156 20.144-18.585 2.326-.441 4.686-.625 7.005-.625 6.897 0 13.432 1.628 17.622 2.961-1.465 15.981-9.909 26.468-23.67 29.079zm105 28.134c-6.277 1.192-12.271-.109-16.446-3.565-3.002-2.486-4.655-5.777-4.655-9.265 0-9.382 7.342-16.156 20.144-18.585 2.327-.442 4.687-.626 7.007-.626 6.898 0 13.434 1.63 17.621 2.961-1.466 15.982-9.911 26.469-23.671 29.08zm23.899-139.072-90-24.116v-14.471l90 24.115z"/><path d="m323.5 371.029v58.95c0 4.142 3.357 7.5 7.5 7.5s7.5-3.358 7.5-7.5v-58.95c0-4.142-3.357-7.5-7.5-7.5s-7.5 3.358-7.5 7.5z"/><path d="m82.5 187.797c4.143 0 7.5-3.358 7.5-7.5v-157.797c0-4.136 3.364-7.5 7.5-7.5h160.75c4.143 0 7.5-3.358 7.5-7.5s-3.357-7.5-7.5-7.5h-160.75c-12.406 0-22.5 10.093-22.5 22.5v157.797c0 4.142 3.357 7.5 7.5 7.5z"/><path d="m430.411 111.592-105.001-105.002c-4.249-4.249-9.899-6.59-15.91-6.59h-21.25c-4.143 0-7.5 3.358-7.5 7.5s3.357 7.5 7.5 7.5h21.25c2.004 0 3.887.78 5.303 2.196 1.417 1.417 2.197 3.3 2.197 5.304v75c0 12.407 10.094 22.5 22.5 22.5h75c2.004 0 3.887.78 5.302 2.196 1.416 1.416 2.198 3.301 2.198 5.304v233.004c0 4.142 3.357 7.5 7.5 7.5s7.5-3.358 7.5-7.5v-233.004c0-6.01-2.34-11.66-6.589-15.908zm-90.911-6.592c-4.136 0-7.5-3.364-7.5-7.5v-63.107l70.606 70.607z"/><path d="m429.5 383.004c-4.143 0-7.5 3.358-7.5 7.5v98.996c0 4.136-3.364 7.5-7.5 7.5h-317c-4.136 0-7.5-3.364-7.5-7.5v-279.203c0-4.142-3.357-7.5-7.5-7.5s-7.5 3.358-7.5 7.5v279.203c0 12.407 10.094 22.5 22.5 22.5h317c12.406 0 22.5-10.093 22.5-22.5v-98.996c0-4.142-3.357-7.5-7.5-7.5z"/><path d="m233.5 378.792v43.426c0 4.142 3.357 7.5 7.5 7.5s7.5-3.358 7.5-7.5v-43.426c0-4.142-3.357-7.5-7.5-7.5s-7.5 3.357-7.5 7.5z"/><path d="m368.5 415.077v-29.145c0-4.142-3.357-7.5-7.5-7.5s-7.5 3.358-7.5 7.5v29.145c0 4.142 3.357 7.5 7.5 7.5s7.5-3.358 7.5-7.5z"/><path d="m113.5 390.032v20.944c0 4.142 3.357 7.5 7.5 7.5s7.5-3.358 7.5-7.5v-20.944c0-4.142-3.357-7.5-7.5-7.5s-7.5 3.358-7.5 7.5z"/><path d="m398.5 405.716v-10.424c0-4.142-3.357-7.5-7.5-7.5s-7.5 3.358-7.5 7.5v10.424c0 4.142 3.357 7.5 7.5 7.5s7.5-3.358 7.5-7.5z"/><path d="m203.5 356.509v87.991c0 4.142 3.357 7.5 7.5 7.5s7.5-3.358 7.5-7.5v-87.991c0-4.142-3.357-7.5-7.5-7.5s-7.5 3.358-7.5 7.5z"/><path d="m173.5 362.943v75.123c0 4.142 3.357 7.5 7.5 7.5s7.5-3.358 7.5-7.5v-75.123c0-4.142-3.357-7.5-7.5-7.5s-7.5 3.358-7.5 7.5z"/><path d="m143.5 382.392v36.224c0 4.142 3.357 7.5 7.5 7.5s7.5-3.358 7.5-7.5v-36.224c0-4.142-3.357-7.5-7.5-7.5s-7.5 3.358-7.5 7.5z"/></g></g></svg>